<svg width="100" height="124" viewBox="0 0 100 124" fill="none" xmlns="http://www.w3.org/2000/svg">
<path d="M67.0822 9.50796C67.1559 9.5278 67.1807 9.55578 67.2482 9.60045C67.4101 10.3759 67.5423 11.5262 67.7276 12.2169C68.2669 14.2255 69.0162 16.9715 69.8069 18.9099C70.8358 21.3532 72.1541 23.6562 73.4193 25.9729C74.4641 27.8858 75.4332 29.5774 76.7459 31.3364C77.2996 32.0795 77.7528 33.0693 78.3121 33.8347C79.485 35.5884 80.8563 37.2849 82.0306 39.0274C83.0968 40.8951 84.5617 42.4681 85.725 44.2604C87.8821 47.5844 90.1935 50.7515 92.0655 54.2581C92.9554 55.925 93.9547 57.3522 94.7185 59.1161C96.3543 62.897 97.9356 66.6383 98.8668 70.6617C99.3889 72.8859 99.6086 75.2988 99.8372 77.5839C100.591 85.8599 98.7118 94.1619 94.4651 101.321C92.1261 105.174 88.5647 109.002 84.9033 111.637C83.3778 112.735 81.8047 113.808 80.1352 114.678C79.3411 115.092 78.4836 115.385 77.6599 115.737C73.4083 117.598 69.6188 118.373 65.0305 118.789C58.1638 119.276 50.6371 118.151 44.5381 114.73C43.1271 113.938 40.5509 111.612 39.7111 110.296C38.1453 107.842 37.3425 104.51 38.0462 101.66C38.9019 97.3999 41.5767 94.7797 44.5079 91.8611L49.5224 86.9607C51.4434 85.095 53.2048 83.3436 54.8578 81.2221C55.1305 80.8711 55.4963 80.5024 55.7394 80.1377C57.1961 77.9567 58.8187 75.8742 60.0495 73.5536C60.7052 72.3132 61.2844 71.0325 61.8375 69.7594C62.8747 67.4264 63.7239 65.0153 64.3762 62.5485C64.6668 61.4131 64.7818 60.3865 65.0002 59.2418C66.4651 51.5415 65.9871 43.421 64.4203 35.7757C63.5765 31.661 61.7493 27.4132 60.1976 23.5381C61.1549 20.7016 63.06 17.9365 64.3534 15.2234C64.9816 13.9059 65.5009 12.5529 66.2068 11.2619C66.5209 10.6872 66.7303 10.0819 67.0822 9.50796ZM73.8298 106.344L74.876 106.821C77.0772 107.41 78.4905 106.577 80.2722 105.322C81.4769 104.472 81.928 103.766 82.9094 102.788C90.0117 95.7197 91.9519 85.1874 89.4841 75.6936C89.3519 75.1846 88.9779 73.2238 88.6893 72.944L88.6811 73.0138C88.6115 73.6692 88.6294 74.5565 88.6094 75.2434C88.5812 76.1656 88.5151 77.0851 88.4111 78.0019C88.0488 81.3028 87.1107 85.3933 85.7367 88.4425C84.7766 90.575 82.6463 93.5407 80.992 95.2086C80.401 95.8052 79.5015 96.5037 78.799 97.1174C76.6943 98.955 73.1686 100.225 72.7168 103.331C72.568 104.351 73.2836 105.55 73.8298 106.344Z" fill="white"/>
<path d="M27.6316 90.7665C28.2899 94.4663 30.1816 99.0829 32.0785 102.307C32.9778 94.7044 39.1989 89.6644 44.3548 84.6804C46.8106 82.3065 49.6792 79.275 51.7189 76.5344C52.8726 74.9841 54.5342 72.2455 55.4825 70.5454C56.2463 69.1751 57.0879 66.8696 57.6506 65.3861C61.8437 54.3348 61.1921 41.5884 57.1678 30.5825C56.7002 29.3037 56.3014 27.8889 55.7477 26.6301C55.0665 25.0826 54.2585 23.4996 53.5174 21.9742C53.3358 21.6001 52.9328 21.0339 52.7034 20.6111C52.2899 19.8488 51.8928 18.9341 51.4443 18.2086C50.7669 17.113 50.0083 16.0097 49.2818 14.9436C48.1381 13.2654 46.9779 11.6081 45.7185 10.0131C45.0965 9.2254 44.3253 8.43365 43.6774 7.65373C43.4323 7.3586 42.7952 6.54885 42.5715 6.30735C41.7858 5.45881 36.6074 0.121544 36.0965 0C35.9687 0.751102 35.9871 1.74074 35.8416 2.61981C35.5302 4.56019 34.9953 6.5771 34.3879 8.44508C33.7589 10.3794 32.7229 12.1876 31.8003 13.9763C30.3936 16.7737 28.7206 19.4079 26.8352 21.9105C26.3101 22.6074 25.8705 23.5752 25.3148 24.2321C23.9581 25.8359 22.7922 27.5784 21.5255 29.2345L15.977 36.4998C15.4208 37.2284 14.475 38.2594 14.0276 38.9895C12.9348 40.7728 11.6327 42.4155 10.489 44.1403C8.02276 47.7804 5.90758 51.6434 4.17155 55.6781C2.61555 59.2488 1.15659 63.2254 0.570409 67.1001C0.01625 70.7623 -0.143606 74.8117 0.132509 78.5026C0.246908 80.0317 0.401117 81.5696 0.619929 83.0864C1.27451 86.9244 2.58944 90.7515 4.22843 94.285C4.59326 95.0718 5.05974 96.254 5.48359 96.9881C6.61119 98.9406 7.8875 100.875 9.1848 102.72C10.3716 104.408 11.5737 105.71 12.9707 107.21C21.0967 115.864 31.903 121.571 43.6703 123.421C44.715 123.594 52.9479 124.2 53.7139 123.933C53.5982 123.68 53.1125 123.676 52.8526 123.63C49.3197 122.993 45.9471 121.451 42.7686 119.842C41.924 119.414 41.0806 119.019 40.2966 118.546C35.8854 115.843 32.0112 112.359 28.8669 108.265C28.2691 107.472 27.089 105.935 26.6476 105.101C25.3039 102.565 23.9557 100.119 22.945 97.4184C22.3901 95.9359 22.1053 94.5601 21.7061 93.0249C19.1151 83.0583 20.3762 72.5712 23.3429 62.8393C23.4961 62.3365 23.6608 61.8506 23.8231 61.3522C25.6454 56.257 27.653 51.3015 30.3652 46.5996C30.8364 45.7826 31.169 44.8625 31.6559 44.048C32.1398 43.2214 32.7034 42.4039 33.2185 41.5921C33.8677 40.552 34.4927 39.4973 35.0931 38.4287C36.03 37.1569 37.8121 34.2036 38.7797 33.3688C36.2251 37.5787 34.5612 42.3775 32.7316 46.9178C31.8983 48.9858 31.1382 51.1874 30.5223 53.3285C27.9898 61.9858 26.0235 70.8649 26.2649 79.9352C26.2877 80.787 26.8436 85.5151 26.8436 85.5151C26.8436 85.5151 27.3289 89.0651 27.6316 90.7665Z" fill="white"/>
</svg>
